<?xml version="1.0" encoding="UTF-8" standalone="no"?>
<svg
   xmlns:dc="http://purl.org/dc/elements/1.1/"
   xmlns:cc="http://creativecommons.org/ns#"
   xmlns:rdf="http://www.w3.org/1999/02/22-rdf-syntax-ns#"
   xmlns:svg="http://www.w3.org/2000/svg"
   xmlns="http://www.w3.org/2000/svg"
   viewBox="0 0 265.33334 265.33334"
   height="265.33334"
   width="265.33334"
   xml:space="preserve"
   id="svg2"
   version="1.1"><metadata
     id="metadata8"><rdf:RDF><cc:Work
         rdf:about=""><dc:format>image/svg+xml</dc:format><dc:type
           rdf:resource="http://purl.org/dc/dcmitype/StillImage" /></cc:Work></rdf:RDF></metadata><defs
     id="defs6" /><g
     transform="matrix(1.3333333,0,0,-1.3333333,0,265.33333)"
     id="g10"><g
       transform="scale(0.1)"
       id="g12"><path
         id="path14"
         style="fill:#231f20;fill-opacity:1;fill-rule:nonzero;stroke:none"
         d="M 1990,995 C 1990,445.48 1544.52,0 995,0 445.48,0 0,445.48 0,995 c 0,549.52 445.48,995 995,995 549.52,0 995,-445.48 995,-995" /><path
         id="path16"
         style="fill:#ffffff;fill-opacity:1;fill-rule:nonzero;stroke:none"
         d="m 1817.5,995 c 0,-454.262 -368.24,-822.5 -822.5,-822.5 -454.258,0 -822.5,368.238 -822.5,822.5 0,454.25 368.242,822.5 822.5,822.5 454.26,0 822.5,-368.25 822.5,-822.5" /><path
         id="path18"
         style="fill:#231f20;fill-opacity:1;fill-rule:nonzero;stroke:none"
         d="m 1645,995 c 0,-358.98 -291.02,-650 -650,-650 -358.984,0 -650,291.02 -650,650 0,358.98 291.016,650 650,650 358.98,0 650,-291.02 650,-650" /><path
         id="path20"
         style="fill:#ffffff;fill-opacity:1;fill-rule:nonzero;stroke:none"
         d="m 1342.5,767.5 c 0,-66.27 -53.73,-120 -120,-120 h -455 c -66.27,0 -120,53.73 -120,120 v 455 c 0,66.27 53.73,120 120,120 h 455 c 66.27,0 120,-53.73 120,-120 v -455" /></g></g></svg>